<svg width="135" height="38" viewBox="0 0 135 38" fill="none" xmlns="http://www.w3.org/2000/svg">
<path d="M16.9686 27.6062H12.2019V10.3815H16.9686V0.0032959C7.35607 0.90481 0 9.13965 0 18.999C0 28.8583 7.35607 37.0932 16.9686 37.9947V27.6062Z" fill="#7B32E8"/>
<path d="M20.4004 0V10.5019C21.0867 10.6022 21.76 10.7803 22.4077 11.0329C23.462 11.4391 24.4276 12.0534 25.2495 12.8408C26.0441 13.607 26.6743 14.5334 27.1003 15.5612C27.5387 16.632 27.7597 17.7827 27.7498 18.9433V18.9931C27.759 20.1581 27.5381 21.3131 27.1003 22.3889C26.677 23.4213 26.0465 24.3515 25.2495 25.1197C24.4266 25.909 23.4614 26.5276 22.4077 26.9413C21.7607 27.1993 21.0874 27.3821 20.4004 27.4861V38C30.0248 37.1121 37.3967 28.872 37.3967 19.0017C37.3967 9.13147 30.0248 0.891302 20.4004 0.00343705V0Z" fill="#1CB7ED"/>
<path fill-rule="evenodd" clip-rule="evenodd" d="M54.6342 25.4924C55.4463 24.7058 56.0887 23.7546 56.5203 22.6998C56.9681 21.5995 57.1941 20.4183 57.1849 19.2267V19.1751C57.1951 17.9879 56.969 16.811 56.5203 15.7158C56.0868 14.6655 55.4446 13.7187 54.6342 12.9352C53.7939 12.1286 52.8058 11.4996 51.7267 11.0843C50.5438 10.6302 49.2887 10.4042 48.0251 10.4176H41.2949V28.0341H48.0251C49.2898 28.0479 50.5457 27.8176 51.7267 27.3553C52.8048 26.9325 53.7923 26.2998 54.6342 25.4924ZM52.8293 17.0871C53.0894 17.7688 53.219 18.4951 53.2112 19.2267V19.2765C53.2243 20.0079 53.0968 20.7348 52.836 21.4161C52.5935 22.0351 52.2339 22.5992 51.7777 23.0761C51.3141 23.5533 50.7551 23.9226 50.1389 24.1588C49.461 24.4168 48.7423 24.5449 48.0189 24.5369H45.0879V13.9164H48.0122C48.7367 13.9078 49.4562 14.0402 50.1322 14.3065C50.7475 14.5502 51.3058 14.9231 51.771 15.4012C52.2312 15.8847 52.5912 16.4581 52.8293 17.0871Z" fill="white"/>
<path d="M58.4922 28.0343V10.4177H62.288V28.0343H58.4922Z" fill="white"/>
<path d="M76.4298 17.8916H80.1314V25.5425C79.1774 26.3575 78.1102 27.0235 76.9649 27.5188C75.6332 28.0856 74.2009 28.3642 72.7585 28.3368C71.4985 28.3533 70.2471 28.1229 69.072 27.658C68.0036 27.2313 67.0306 26.5883 66.2117 25.7676C65.4108 24.9496 64.7811 23.9737 64.3609 22.8994C63.9063 21.748 63.6776 20.5165 63.6879 19.275V19.2252C63.6545 15.5614 65.7982 12.2424 69.1091 10.8319C70.2555 10.3451 71.4868 10.1013 72.7282 10.1153C73.4339 10.1123 74.1385 10.1698 74.8348 10.2872C75.4351 10.3844 76.0254 10.538 76.5981 10.746C77.1315 10.9429 77.6435 11.1958 78.1258 11.5004C78.6099 11.8091 79.0711 12.1537 79.5055 12.5316L77.1146 15.4771C76.8026 15.2039 76.4739 14.9513 76.1303 14.721C75.8058 14.5064 75.4635 14.3212 75.1073 14.1676C74.7375 14.0146 74.3537 13.8994 73.9615 13.8239C73.5146 13.7366 73.0604 13.6945 72.6054 13.6984C71.9365 13.6939 71.2754 13.845 70.6721 14.1401C70.0777 14.4295 69.5426 14.832 69.0956 15.3259C68.6369 15.8319 68.2771 16.4228 68.0356 17.0667C67.7775 17.746 67.6479 18.4691 67.6537 19.1977V19.2372C67.6451 19.9996 67.7746 20.757 68.0356 21.4713C68.2777 22.1318 68.646 22.7364 69.1192 23.25C69.5846 23.7525 70.1465 24.1515 70.7697 24.422C71.4366 24.7068 72.1536 24.8483 72.8763 24.8379C74.2896 24.8379 75.4809 24.4833 76.45 23.7741L76.4298 17.8916Z" fill="white"/>
<path d="M82.002 28.0343V10.4177H85.7961V28.0343H82.002Z" fill="white"/>
<path d="M96.4385 13.9923V28.0343H92.6444V13.9923H87.3965V10.4177H101.686V13.9923H96.4385Z" fill="white"/>
<path d="M103.211 28.0343V10.4177H116.197V13.8668H106.956V17.4396H115.088V20.887H106.956V24.587H116.32V28.0343H103.211Z" fill="white"/>
<path d="M129.566 28.0343L125.697 21.9954L121.803 28.0343H117.494L123.506 19.0756L117.74 10.4177H122.175L125.798 16.1301L129.444 10.4177H133.756L127.99 19.0258L134.002 28.0343H129.566Z" fill="white"/>
</svg>
